<svg version="1.0" xmlns="http://www.w3.org/2000/svg"
 width="30.720000pt" height="30.720000pt" viewBox="0 0 30.720000 30.720000"
 preserveAspectRatio="xMidYMid meet">
<g transform="translate(0.000000,30.720000) scale(0.006000,-0.006000)"
fill="#000000" stroke="none">
<path d="M2965 5036 c-17 -7 -60 -42 -97 -78 -43 -41 -81 -69 -106 -76 -22 -7
-97 -12 -168 -12 -142 0 -163 6 -262 73 -48 33 -55 35 -85 25 -40 -14 -159
-136 -237 -242 -92 -125 -169 -221 -243 -305 -61 -68 -171 -207 -265 -335 -18
-24 -43 -55 -56 -68 -13 -12 -55 -62 -94 -110 -39 -47 -80 -97 -91 -110 -10
-13 -49 -61 -85 -108 -36 -47 -71 -92 -79 -100 -7 -9 -59 -74 -116 -145 -57
-72 -112 -139 -122 -150 -55 -61 -147 -170 -164 -196 -36 -54 -277 -353 -319
-396 -23 -23 -60 -67 -81 -99 -22 -31 -74 -100 -117 -154 -103 -132 -112 -150
-94 -193 7 -19 41 -64 74 -101 80 -88 92 -126 92 -285 0 -137 -6 -157 -69
-255 -17 -28 -31 -59 -31 -70 0 -51 74 -129 295 -312 66 -55 134 -110 150
-121 17 -12 43 -48 60 -83 68 -140 158 -314 181 -347 13 -20 24 -42 24 -49 0
-7 4 -14 8 -16 5 -2 41 -64 81 -138 72 -136 119 -194 165 -206 16 -4 48 4 90
20 57 23 79 26 185 26 120 0 120 0 193 -38 51 -27 82 -52 105 -83 66 -90 77
-101 118 -121 l43 -21 68 38 c199 110 281 153 303 160 13 4 56 27 95 50 39 23
100 59 136 78 141 78 268 150 330 188 36 21 121 66 190 100 69 34 152 79 185
99 33 21 143 84 245 140 102 57 201 113 220 125 19 12 102 55 183 95 82 40
171 88 198 107 27 18 129 78 227 132 97 54 200 112 228 128 28 17 62 34 75 38
35 11 200 101 246 134 23 17 50 49 62 75 l22 45 -28 63 c-26 59 -28 72 -28
193 0 129 0 131 36 206 30 63 44 81 85 107 87 56 96 64 116 109 l20 45 -52
101 c-29 56 -58 109 -66 117 -7 8 -29 51 -49 95 -56 122 -112 229 -180 345
-34 58 -97 173 -140 255 -44 83 -89 165 -101 183 -13 18 -28 50 -35 70 -15 47
-33 68 -87 99 l-43 26 -72 -29 c-55 -22 -87 -29 -142 -29 l-70 0 -3 49 c-4 63
20 136 69 210 45 67 46 74 20 124 -27 52 -227 232 -377 339 -33 23 -84 66
-114 94 -82 77 -359 309 -370 309 -4 0 -39 28 -77 63 -120 110 -155 127 -208
103z m118 -78 c24 -12 164 -126 169 -137 2 -3 46 -42 98 -86 52 -44 100 -84
106 -90 13 -12 110 -90 171 -137 80 -62 408 -340 426 -360 28 -33 23 -113 -10
-152 -35 -41 -69 -120 -84 -195 -11 -49 -10 -70 0 -113 22 -84 54 -147 115
-226 52 -67 56 -76 56 -125 0 -43 -6 -62 -36 -107 -19 -30 -43 -62 -52 -70 -9
-8 -64 -73 -121 -145 -58 -71 -137 -168 -175 -215 -39 -47 -93 -114 -120 -150
-70 -91 -256 -317 -301 -364 -20 -22 -49 -58 -63 -80 -37 -58 -215 -281 -272
-341 -53 -57 -157 -185 -185 -230 -22 -36 -133 -174 -156 -195 -36 -32 -233
-277 -271 -337 -15 -23 -40 -55 -55 -70 -16 -16 -80 -93 -143 -171 l-115 -142
-59 0 c-52 0 -65 5 -119 40 -33 22 -91 50 -130 62 -64 19 -77 20 -132 9 -75
-16 -167 -66 -238 -131 -53 -49 -56 -50 -117 -50 l-63 0 -86 72 c-47 40 -93
80 -101 90 -24 27 -229 197 -253 209 -27 15 -133 102 -167 139 -25 27 -283
241 -353 293 -35 27 -37 31 -37 84 0 45 6 65 29 102 70 109 97 209 80 294 -16
75 -61 163 -118 232 -49 59 -50 62 -51 126 l0 66 159 197 c88 109 183 223 212
254 28 31 63 75 77 97 33 53 206 267 293 363 38 42 86 102 107 132 43 64 185
244 222 280 39 38 178 211 224 279 23 33 67 88 97 123 59 66 314 377 339 414
23 32 284 355 313 387 22 23 34 27 79 27 45 0 62 -6 112 -40 80 -55 180 -84
252 -75 70 8 175 61 248 125 55 48 59 50 117 50 33 0 70 -5 82 -12z m1290
-1253 c18 -18 141 -249 152 -285 5 -14 28 -61 53 -105 25 -44 81 -145 125
-225 44 -80 113 -205 154 -277 95 -170 123 -241 123 -314 l0 -58 -59 -45
c-124 -96 -189 -205 -198 -336 -5 -56 -1 -76 26 -147 38 -98 40 -178 6 -197
-11 -6 -22 -14 -25 -17 -3 -3 -41 -25 -85 -49 -44 -23 -102 -57 -130 -75 -48
-30 -155 -87 -295 -156 -36 -17 -99 -51 -140 -76 -41 -25 -82 -49 -90 -54 -8
-4 -73 -41 -145 -80 -71 -40 -146 -82 -165 -94 -55 -35 -143 -82 -167 -89 -24
-8 -217 -114 -313 -173 -84 -51 -358 -202 -497 -273 -138 -70 -236 -124 -293
-163 -47 -31 -434 -243 -483 -265 -15 -7 -55 -12 -87 -12 l-59 0 -40 53 c-76
102 -145 152 -268 193 -69 23 -83 25 -132 15 -30 -6 -79 -22 -109 -36 -53 -24
-134 -33 -158 -17 -12 8 -28 36 -78 142 -20 41 -49 98 -65 125 -22 37 -30 63
-30 103 l-1 52 51 0 c50 0 56 -3 148 -78 53 -43 107 -86 121 -95 49 -34 102
-15 180 63 23 23 65 53 93 66 47 21 66 24 184 24 l132 0 74 -39 c40 -21 83
-45 95 -52 34 -21 112 21 170 93 62 75 126 115 544 337 136 72 262 140 280
150 18 11 51 29 73 41 22 12 63 37 90 55 63 41 290 164 375 204 36 17 83 41
105 54 22 13 69 40 105 59 36 19 81 45 100 57 19 11 44 25 55 31 11 5 45 25
75 44 30 19 102 60 160 92 138 75 184 113 206 169 l17 46 -41 82 c-22 45 -52
98 -65 118 -29 44 -173 312 -245 460 -60 121 -68 184 -31 229 11 14 32 43 46
65 27 42 135 177 166 208 10 10 25 33 32 50 18 43 0 84 -64 152 -63 66 -81
103 -81 163 l0 49 54 7 c30 3 73 15 97 25 54 24 151 27 172 6z m-444 -948 c12
-23 79 -152 148 -287 69 -135 134 -261 144 -280 14 -25 19 -56 19 -113 l0 -77
-47 -29 c-27 -16 -67 -41 -89 -55 -23 -14 -59 -32 -81 -40 -21 -7 -100 -48
-176 -90 -76 -42 -140 -76 -143 -76 -3 0 -14 -8 -25 -19 -19 -17 -297 -172
-519 -288 -128 -67 -169 -91 -275 -153 -240 -142 -277 -160 -332 -160 l-53 0
0 53 c0 52 1 53 115 191 63 76 115 143 115 147 0 5 18 28 39 52 22 23 79 92
128 152 48 61 125 156 171 210 45 55 145 179 221 275 76 96 153 191 171 210
50 52 116 133 130 161 7 13 56 77 108 142 l95 117 56 0 c55 0 56 -1 80 -43z"/>
<path d="M2415 4396 c-37 -17 -83 -66 -218 -232 -59 -73 -125 -151 -147 -174
-23 -24 -59 -70 -81 -103 -41 -61 -242 -312 -259 -322 -13 -8 -159 -191 -192
-240 -15 -22 -46 -63 -70 -91 -24 -29 -86 -103 -139 -165 -145 -172 -186 -224
-202 -255 -9 -16 -32 -47 -53 -69 -36 -39 -175 -207 -306 -372 -76 -95 -88
-131 -66 -202 11 -37 29 -58 93 -114 44 -38 102 -84 130 -103 27 -18 88 -67
135 -108 169 -150 319 -276 365 -307 26 -18 75 -58 109 -88 34 -31 88 -79 121
-106 33 -27 71 -60 85 -73 27 -27 82 -52 113 -52 33 0 101 64 208 194 54 66
129 155 165 196 35 41 74 91 86 110 25 40 174 228 199 250 16 14 36 38 165
195 22 28 57 75 77 105 20 31 55 76 78 100 48 52 314 377 349 426 33 48 293
366 350 429 58 63 100 136 100 173 0 9 -8 37 -17 62 -18 47 -54 86 -114 125
-42 27 -326 261 -331 273 -5 12 -144 129 -170 143 -29 15 -186 145 -258 213
-179 168 -246 208 -305 182z m246 -186 c79 -67 149 -124 154 -128 33 -25 324
-268 397 -331 48 -42 122 -103 164 -136 42 -33 96 -77 120 -98 l44 -39 0 -76
0 -77 -61 -75 c-33 -41 -68 -82 -77 -90 -26 -23 -142 -168 -184 -230 -21 -30
-69 -91 -107 -135 -103 -117 -265 -315 -286 -350 -23 -36 -94 -124 -117 -145
-9 -8 -52 -60 -95 -115 -44 -55 -86 -107 -94 -115 -8 -8 -40 -49 -71 -90 -32
-41 -70 -91 -87 -110 -16 -19 -80 -98 -142 -175 -62 -77 -120 -149 -130 -160
-78 -90 -129 -150 -155 -187 l-30 -43 -77 1 -76 1 -78 64 c-43 36 -97 77 -120
93 -22 15 -61 46 -85 70 -23 23 -113 100 -198 171 -85 72 -161 136 -168 143
-8 7 -27 19 -42 27 -16 8 -33 21 -37 28 -4 7 -62 57 -128 111 -167 136 -165
134 -165 211 0 57 3 68 36 110 20 26 46 57 59 69 26 23 179 215 238 298 20 29
59 77 87 106 52 57 256 309 305 379 17 23 59 76 95 119 184 220 281 339 459
564 76 96 153 191 171 210 52 55 114 132 134 165 10 17 30 42 44 58 23 24 33
27 93 27 l67 0 143 -120z"/>
<path d="M2290 3149 c-36 -40 -80 -88 -98 -107 l-33 -35 -77 6 c-42 3 -90 12
-107 21 -16 9 -36 16 -43 16 -7 0 -34 9 -59 21 -25 11 -47 18 -50 16 -2 -3 25
-57 61 -120 60 -104 66 -119 66 -171 0 -55 -2 -59 -84 -169 -47 -61 -83 -113
-82 -114 2 -2 51 8 109 22 74 18 127 25 174 23 l68 -3 50 -71 c27 -39 66 -92
85 -118 l35 -48 17 158 c9 86 19 162 21 168 3 6 70 32 151 56 80 24 146 47
146 50 0 3 -62 32 -137 65 l-138 60 -5 173 -5 173 -65 -72z"/>
</g>
</svg>
